<svg xmlns="http://www.w3.org/2000/svg" viewBox="0 0 512 512" role="img" aria-label="MyLife Planner">
  <defs>
    <linearGradient id="bg" x1="256" y1="0" x2="256" y2="512" gradientUnits="userSpaceOnUse">
      <stop offset="0" stop-color="#2a2a2d"/>
      <stop offset="1" stop-color="#0b0b0d"/>
    </linearGradient>
    <linearGradient id="edge" x1="256" y1="24" x2="256" y2="488" gradientUnits="userSpaceOnUse">
      <stop offset="0" stop-color="#ffffff" stop-opacity=".18"/>
      <stop offset="1" stop-color="#ffffff" stop-opacity=".04"/>
    </linearGradient>
  </defs>
  <rect width="512" height="512" rx="112" fill="url(#bg)"/>
  <rect x="18" y="18" width="476" height="476" rx="100" fill="none" stroke="url(#edge)" stroke-width="6"/>
  <circle cx="256" cy="256" r="158" fill="none" stroke="#ffffff" stroke-width="12" opacity=".18"/>
  <circle cx="256" cy="256" r="83" fill="none" stroke="#ffffff" stroke-width="13" opacity=".38"/>
  <g fill="none" stroke="#ffffff" stroke-linecap="round" stroke-linejoin="round">
    <path stroke-width="18" d="M256 82c-43 54-43 102 0 160 43-58 43-106 0-160Z"/>
    <path stroke-width="18" d="M256 430c43-54 43-102 0-160-43 58-43 106 0 160Z"/>
    <path stroke-width="18" d="M82 256c54-43 102-43 160 0-58 43-106 43-160 0Z"/>
    <path stroke-width="18" d="M430 256c-54 43-102 43-160 0 58-43 106-43 160 0Z"/>
    <path stroke-width="14" d="M134 134c68 8 103 42 112 112-70-9-104-44-112-112Z"/>
    <path stroke-width="14" d="M378 134c-8 68-42 103-112 112 9-70 44-104 112-112Z"/>
    <path stroke-width="14" d="M134 378c8-68 42-103 112-112-9 70-44 104-112 112Z"/>
    <path stroke-width="14" d="M378 378c-68-8-103-42-112-112 70 9 104 44 112 112Z"/>
  </g>
  <g fill="#ffffff">
    <circle cx="256" cy="256" r="23"/>
    <circle cx="256" cy="75" r="10" opacity=".96"/>
    <circle cx="256" cy="437" r="10" opacity=".96"/>
    <circle cx="75" cy="256" r="10" opacity=".96"/>
    <circle cx="437" cy="256" r="10" opacity=".96"/>
    <circle cx="128" cy="128" r="8" opacity=".82"/>
    <circle cx="384" cy="128" r="8" opacity=".82"/>
    <circle cx="128" cy="384" r="8" opacity=".82"/>
    <circle cx="384" cy="384" r="8" opacity=".82"/>
  </g>
</svg>
