<svg xmlns="http://www.w3.org/2000/svg" viewBox="0 0 1536 1024" shape-rendering="geometricPrecision">
  <defs>
    <linearGradient id="gold" x1="0" y1="100" x2="0" y2="920" gradientUnits="userSpaceOnUse">
      <stop offset="0" stop-color="#ffe94d"/>
      <stop offset="0.48" stop-color="#ffd81f"/>
      <stop offset="1" stop-color="#f0b500"/>
    </linearGradient>
    <filter id="shadow" x="-5%" y="-5%" width="110%" height="110%">
      <feDropShadow dx="4" dy="5" stdDeviation="2.4" flood-color="#000000" flood-opacity="0.5"/>
    </filter>
  </defs>
  <path d="M 1082.00 871.17 C 1041.68 871.54, 818.70 871.19, 778.85 870.00 C 739.01 868.81, 775.88 886.44, 775.50 862.00 C 775.12 837.56, 774.71 705.29, 775.95 682.00 C 777.18 658.71, 782.52 681.48, 785.00 682.83 C 787.48 684.19, 792.79 690.87, 795.00 692.43 C 797.21 693.99, 798.78 692.55, 802.00 694.83 C 805.22 697.11, 814.41 706.17, 819.74 710.00 C 825.07 713.83, 838.29 722.21, 843.00 724.31 C 847.71 726.41, 852.60 727.48, 856.00 726.14 C 859.40 724.80, 863.47 722.47, 869.16 714.00 C 874.86 705.53, 894.74 669.19, 899.81 661.00 C 904.89 652.81, 906.70 653.47, 908.19 651.00 C 909.68 648.53, 910.24 643.69, 911.28 642.00 C 912.32 640.31, 915.20 639.69, 916.18 638.00 C 917.16 636.31, 916.36 633.64, 918.81 629.00 C 921.26 624.36, 930.82 605.54, 935.00 602.33 C 939.18 599.12, 945.02 602.81, 951.00 604.30 C 956.98 605.80, 970.47 609.43, 981.00 613.84 C 991.53 618.25, 1021.16 631.03, 1032.00 638.20 C 1042.84 645.37, 1058.02 660.97, 1064.41 669.00 C 1070.80 677.03, 1078.22 693.24, 1081.18 700.00 C 1084.14 706.76, 1085.83 713.98, 1087.17 721.00 C 1088.51 728.02, 1090.92 736.06, 1091.48 754.00 C 1092.04 771.94, 1091.81 844.28, 1091.48 859.00 C 1091.16 873.72, 1090.23 865.62, 1089.00 867.21 C 1087.77 868.79, 1122.32 870.81, 1082.00 871.17 Z 
M 750.00 871.17 C 709.78 871.20, 485.36 870.77, 445.00 869.19 C 404.64 867.60, 440.22 874.62, 439.52 859.00 C 438.81 843.38, 438.65 768.37, 439.60 749.00 C 440.55 729.63, 444.07 719.23, 446.82 710.00 C 449.58 700.77, 455.07 686.51, 460.81 678.00 C 466.56 669.49, 484.09 650.83, 491.00 644.57 C 497.91 638.30, 502.30 635.23, 514.00 629.81 C 525.70 624.40, 570.99 606.52, 581.00 602.93 C 591.01 599.34, 587.10 598.86, 591.00 602.22 C 594.90 605.57, 608.27 624.59, 611.00 628.73 C 613.73 632.88, 608.31 628.12, 612.00 634.13 C 615.69 640.15, 635.66 668.91, 639.40 675.00 C 643.15 681.09, 636.83 674.74, 640.81 681.00 C 644.79 687.26, 664.52 717.38, 670.00 723.17 C 675.48 728.95, 680.01 725.53, 683.00 725.50 C 685.99 725.47, 685.20 728.28, 693.00 722.96 C 700.80 717.64, 734.94 689.94, 743.00 684.60 C 751.06 679.25, 753.25 658.52, 755.00 681.85 C 756.75 705.17, 756.56 839.67, 756.48 864.00 C 756.41 888.33, 755.25 868.07, 754.41 869.00 C 753.57 869.93, 790.22 871.15, 750.00 871.17 Z 
M 576.00 373.16 C 562.09 379.35, 571.97 373.20, 571.00 372.40 C 570.03 371.60, 568.57 377.06, 568.52 367.00 C 568.46 356.94, 569.13 308.78, 570.60 295.00 C 572.07 281.22, 576.41 269.71, 579.82 261.00 C 583.23 252.29, 592.04 235.54, 596.81 228.00 C 601.58 220.46, 610.14 209.50, 616.50 203.00 C 622.86 196.50, 637.34 183.89, 645.73 178.00 C 654.11 172.11, 671.21 161.83, 681.00 157.69 C 690.79 153.54, 713.98 149.82, 721.00 146.09 C 728.02 142.35, 731.62 131.46, 735.00 128.93 C 738.38 126.40, 743.49 126.76, 747.00 126.62 C 750.51 126.49, 758.23 125.85, 762.00 127.86 C 765.77 129.87, 767.68 138.90, 776.00 142.09 C 784.32 145.28, 815.08 148.92, 826.00 152.39 C 836.92 155.86, 852.59 164.22, 860.00 168.80 C 867.41 173.39, 877.28 182.08, 883.00 187.66 C 888.72 193.23, 898.90 204.40, 904.00 211.73 C 909.10 219.05, 918.86 236.94, 922.26 244.00 C 925.66 251.06, 928.59 260.54, 930.18 266.00 C 931.77 271.46, 934.25 282.44, 934.48 286.00 C 934.72 289.56, 937.78 293.31, 932.00 293.39 C 926.22 293.46, 901.83 287.62, 890.00 286.60 C 878.17 285.57, 856.86 284.33, 841.00 285.50 C 825.14 286.67, 782.82 292.82, 768.00 295.59 C 753.18 298.37, 738.70 303.02, 727.00 306.82 C 715.30 310.62, 697.63 316.20, 678.00 324.82 C 658.37 333.45, 589.91 366.98, 576.00 373.16 Z 
M 793.00 386.18 C 785.85 386.99, 778.02 387.18, 771.00 386.40 C 763.98 385.62, 747.64 382.83, 739.00 380.18 C 730.36 377.52, 711.99 369.92, 704.51 366.00 C 697.02 362.08, 678.76 354.57, 681.42 350.00 C 684.09 345.43, 709.97 335.96, 725.00 330.84 C 740.03 325.72, 783.61 313.52, 797.00 310.61 C 810.39 307.69, 823.06 309.06, 828.00 308.40 C 832.94 307.74, 826.68 305.89, 835.00 305.52 C 843.32 305.14, 883.81 305.14, 892.00 305.52 C 900.19 305.89, 894.75 307.99, 898.00 308.39 C 901.25 308.79, 906.86 306.46, 917.00 308.60 C 927.14 310.73, 964.43 320.89, 976.00 324.82 C 987.57 328.75, 1000.62 335.67, 1006.00 338.81 C 1011.38 341.95, 1016.20 346.12, 1017.39 349.00 C 1018.58 351.88, 1016.51 358.91, 1015.16 361.00 C 1013.81 363.09, 1013.65 365.76, 1007.00 365.06 C 1000.35 364.36, 974.40 356.96, 964.00 355.60 C 953.60 354.24, 936.49 353.92, 927.00 354.60 C 917.51 355.28, 904.13 357.50, 891.00 360.82 C 877.87 364.15, 838.74 376.88, 826.00 380.17 C 813.26 383.47, 800.15 385.37, 793.00 386.18 Z 
M 779.00 580.18 C 768.73 580.86, 746.79 580.22, 736.00 578.40 C 725.21 576.58, 706.14 570.63, 696.00 566.18 C 685.86 561.73, 666.25 550.07, 658.00 544.20 C 649.75 538.32, 638.64 527.92, 632.50 521.00 C 626.37 514.08, 615.58 499.32, 610.81 491.00 C 606.04 482.68, 598.84 466.75, 595.82 457.00 C 592.81 447.25, 588.81 424.19, 587.60 416.00 C 586.39 407.81, 586.36 398.16, 586.52 394.00 C 586.67 389.84, 586.01 386.29, 588.81 384.00 C 591.60 381.71, 605.10 377.18, 608.00 376.40 C 610.90 375.62, 610.74 372.59, 611.08 378.00 C 611.42 383.41, 609.59 407.60, 610.60 418.00 C 611.61 428.40, 615.58 448.51, 618.86 458.00 C 622.14 467.49, 630.66 483.20, 635.81 491.00 C 640.97 498.80, 651.61 511.61, 658.52 518.00 C 665.44 524.39, 681.01 535.54, 689.00 540.19 C 696.99 544.85, 713.50 551.45, 720.00 553.81 C 726.50 556.18, 732.11 557.54, 739.00 558.40 C 745.89 559.27, 764.81 560.74, 773.00 560.48 C 781.19 560.22, 794.59 558.14, 802.00 556.40 C 809.41 554.66, 825.19 549.26, 830.00 547.11 C 834.81 544.95, 836.79 541.08, 839.00 539.81 C 841.21 538.53, 841.88 540.92, 847.00 537.31 C 852.12 533.69, 871.19 519.45, 878.40 512.00 C 885.61 504.55, 898.09 487.28, 902.47 480.00 C 906.85 472.72, 909.76 463.54, 912.10 456.00 C 914.43 448.46, 919.25 432.27, 920.40 422.00 C 921.56 411.73, 919.32 383.29, 920.96 377.00 C 922.60 370.71, 930.21 373.86, 933.00 373.60 C 935.79 373.34, 940.92 371.31, 942.41 375.00 C 943.90 378.69, 945.16 392.51, 944.48 402.00 C 943.80 411.49, 939.68 437.99, 937.18 448.00 C 934.68 458.01, 929.51 470.68, 925.26 479.00 C 921.00 487.32, 910.58 504.27, 904.44 512.00 C 898.29 519.73, 885.60 532.17, 878.00 538.44 C 870.40 544.70, 854.19 555.68, 846.00 560.19 C 837.81 564.71, 823.71 570.58, 815.00 573.18 C 806.29 575.77, 789.27 579.50, 779.00 580.18 Z 
M 849.00 703.28 C 839.22 716.80, 850.12 707.02, 841.73 701.00 C 833.33 694.98, 779.83 674.61, 784.42 657.00 C 789.01 639.39, 864.31 577.53, 877.00 565.52 C 889.69 553.50, 879.88 564.00, 882.00 564.58 C 884.12 565.16, 889.05 566.83, 893.27 570.00 C 897.50 573.17, 911.40 585.49, 914.48 589.00 C 917.56 592.51, 925.48 582.14, 916.97 597.00 C 908.46 611.86, 858.78 689.76, 849.00 703.28 Z 
M 686.00 704.09 C 678.07 709.63, 682.94 704.59, 682.00 704.06 C 681.06 703.53, 688.02 714.44, 678.80 700.00 C 669.58 685.56, 615.20 610.57, 611.07 593.00 C 606.93 575.43, 641.68 568.39, 647.00 564.84 C 652.32 561.29, 647.58 561.56, 652.00 565.67 C 656.42 569.77, 668.66 584.67, 681.00 596.41 C 693.34 608.16, 738.88 647.55, 746.94 656.00 C 755.00 664.45, 750.92 655.19, 743.00 661.44 C 735.08 667.69, 693.93 698.55, 686.00 704.09 Z 
M 938.47 777.00 C 951.60 776.88, 974.77 776.66, 981.00 775.49 C 987.23 774.32, 986.65 769.81, 986.39 768.00 C 986.13 766.19, 992.31 762.44, 979.00 761.60 C 965.69 760.76, 897.26 761.26, 884.00 761.52 C 870.74 761.77, 878.35 762.60, 877.00 763.58 C 875.65 764.55, 873.23 767.33, 873.62 769.00 C 874.01 770.67, 871.57 775.36, 880.00 776.40 C 888.43 777.44, 925.34 777.12, 938.47 777.00 Z " fill="url(#gold)" fill-rule="evenodd" stroke="#b99100" stroke-width="2.2" stroke-linejoin="round" stroke-linecap="round" filter="url(#shadow)"/>
</svg>