<svg xmlns="http://www.w3.org/2000/svg" width="512" height="512" viewBox="0 0 512 512">
  <defs>
    <linearGradient id="gold" x1="0" y1="40" x2="0" y2="472">
      <stop offset="0" stop-color="#FFE680"/>
      <stop offset="0.45" stop-color="#FFBC0D"/>
      <stop offset="1" stop-color="#B97800"/>
    </linearGradient>
    <filter id="softGlow" x="-40%" y="-40%" width="180%" height="180%">
      <feDropShadow dx="0" dy="0" stdDeviation="7" flood-color="#ffbc0d" flood-opacity=".28"/>
    </filter>
  </defs>

  <g fill="url(#gold)" filter="url(#softGlow)">
    <!-- cap top -->
    <path d="M156 147
             C165 92 215 63 279 75
             C331 85 368 123 376 177
             C310 163 239 162 156 184
             C152 171 153 158 156 147Z"/>
    <!-- cap peak -->
    <path d="M212 190
             C277 165 355 172 428 208
             C417 232 371 241 321 229
             C277 219 239 214 206 221
             C195 213 198 198 212 190Z"/>
    <!-- small button -->
    <path d="M245 66
             C252 57 266 57 273 66
             L275 84
             C264 82 254 82 243 84Z"/>

    <!-- face / head outline, faceless -->
    <path d="M168 204
             C168 287 207 332 256 332
             C306 332 344 288 344 214
             C304 203 236 202 168 204Z"/>

    <!-- neck -->
    <path d="M220 322
             L256 374
             L292 322
             C282 329 270 333 256 333
             C242 333 230 329 220 322Z"/>

    <!-- shirt body left -->
    <path d="M84 448
             C91 388 132 344 203 329
             L245 394
             L224 448Z"/>
    <!-- shirt body right -->
    <path d="M428 448
             C421 388 380 344 309 329
             L267 394
             L288 448Z"/>

    <!-- collar left -->
    <path d="M204 330 L248 392 L205 365 L176 398 Z"/>
    <!-- collar right -->
    <path d="M308 330 L264 392 L307 365 L336 398 Z"/>
  </g>

  <!-- internal dark cuts -->
  <g stroke="#0b0b0b" stroke-linecap="round" stroke-linejoin="round" opacity=".88">
    <path d="M160 187 C225 163 306 162 376 177" stroke-width="16"/>
    <path d="M212 221 C257 206 329 211 411 224" stroke-width="15"/>
    <path d="M256 392 L256 448" stroke-width="16"/>
    <path d="M205 365 L248 392 L176 398" stroke-width="15"/>
    <path d="M307 365 L264 392 L336 398" stroke-width="15"/>
    <path d="M326 406 L365 406" stroke-width="14"/>
  </g>
</svg>
